<svg xmlns="http://www.w3.org/2000/svg" xmlns:xlink="http://www.w3.org/1999/xlink" width="1000" height="1000" viewBox="0 0 375 374.999991"  preserveAspectRatio="xMidYMid meet" version="1.0">
    <defs>
        <g/>
    <clipPath id="e32b6be39b">
        <path d="M 81.003906 152 L 140 152 L 140 209.6875 L 81.003906 209.6875 Z M 81.003906 152 " clip-rule="nonzero"/>
    </clipPath>
    <clipPath id="1c92517d36">
        <path d="M 116.171875 152.84375 C 113.296875 152.84375 111.019531 155.335938 110.933594 158.355469 C 110.929688 158.386719 110.925781 158.417969 110.925781 158.449219 L 110.925781 158.480469 C 110.925781 158.5 110.925781 158.515625 110.925781 158.53125 C 110.925781 158.554688 110.925781 158.578125 110.925781 158.605469 L 110.921875 162.238281 C 110.917969 162.292969 110.925781 162.347656 110.9375 162.402344 C 110.9375 162.402344 110.9375 162.402344 110.9375 162.40625 C 110.988281 164.074219 111.589844 165.605469 112.558594 166.785156 C 111.542969 168.003906 110.929688 169.609375 110.910156 171.355469 C 110.90625 171.390625 110.902344 171.429688 110.902344 171.464844 L 110.878906 184.4375 C 110.878906 184.441406 110.878906 184.441406 110.878906 184.445312 C 110.878906 184.445312 110.878906 184.445312 110.878906 184.449219 L 110.878906 184.546875 C 110.878906 184.589844 110.882812 184.632812 110.886719 184.675781 C 110.886719 184.675781 110.886719 184.679688 110.886719 184.679688 C 110.921875 186.609375 111.675781 188.359375 112.898438 189.605469 C 111.632812 190.882812 110.863281 192.707031 110.863281 194.691406 C 110.859375 194.714844 110.859375 194.738281 110.859375 194.765625 L 110.84375 203.992188 C 110.84375 203.996094 110.84375 203.996094 110.84375 204 C 110.84375 204 110.84375 204.003906 110.84375 204.003906 L 110.84375 204.097656 C 110.839844 204.140625 110.84375 204.1875 110.851562 204.230469 C 110.964844 207.222656 113.234375 209.6875 116.085938 209.6875 C 117.875 209.6875 119.433594 208.714844 120.378906 207.257812 C 120.671875 207.398438 120.976562 207.523438 121.296875 207.613281 C 124.527344 208.511719 127.804688 206.339844 128.597656 202.894531 C 128.632812 202.753906 128.652344 202.613281 128.675781 202.472656 C 131.566406 203.566406 134.886719 202.316406 136.480469 199.375 C 137.746094 197.035156 137.648438 194.242188 136.433594 192.066406 C 137.265625 191.320312 137.980469 190.386719 138.511719 189.289062 C 140.515625 185.175781 139.359375 180.148438 135.917969 177.523438 C 136.339844 176.59375 136.585938 175.558594 136.585938 174.457031 C 136.585938 171.066406 134.320312 168.195312 131.292969 167.628906 C 132.558594 164.367188 131.65625 160.488281 128.894531 158.308594 C 127.292969 157.046875 125.351562 156.625 123.527344 156.949219 C 122.773438 157.085938 122.042969 157.355469 121.359375 157.742188 C 121.003906 155.007812 118.84375 152.84375 116.167969 152.84375 Z M 109.722656 152.855469 C 107.921875 152.871094 106.136719 153.054688 104.371094 153.410156 L 104.375 153.414062 C 104.398438 153.460938 104.421875 153.507812 104.441406 153.554688 L 104.457031 153.59375 C 104.597656 153.929688 104.703125 154.277344 104.773438 154.632812 C 104.847656 154.992188 104.882812 155.351562 104.882812 155.714844 C 104.886719 156.078125 104.851562 156.441406 104.78125 156.796875 C 104.710938 157.15625 104.605469 157.503906 104.46875 157.839844 C 104.332031 158.175781 104.160156 158.496094 103.960938 158.800781 C 103.757812 159.105469 103.53125 159.386719 103.273438 159.644531 C 103.015625 159.902344 102.738281 160.132812 102.4375 160.335938 C 102.132812 160.539062 101.816406 160.710938 101.480469 160.851562 C 101.144531 160.992188 100.796875 161.101562 100.441406 161.171875 C 100.085938 161.246094 99.726562 161.28125 99.363281 161.285156 C 98.996094 161.285156 98.636719 161.25 98.28125 161.179688 C 97.921875 161.113281 97.578125 161.007812 97.238281 160.871094 C 96.902344 160.734375 96.582031 160.5625 96.28125 160.363281 C 95.976562 160.160156 95.695312 159.933594 95.4375 159.675781 C 95.179688 159.421875 94.945312 159.140625 94.742188 158.839844 C 94.539062 158.539062 94.367188 158.21875 94.226562 157.882812 C 94.199219 157.820312 94.175781 157.753906 94.152344 157.6875 C 91.070312 159.773438 88.496094 162.363281 86.429688 165.460938 C 87.660156 166.0625 88.546875 167 89.085938 168.261719 L 89.101562 168.300781 C 89.242188 168.636719 89.347656 168.980469 89.421875 169.339844 C 89.492188 169.695312 89.527344 170.058594 89.527344 170.421875 C 89.53125 170.785156 89.496094 171.144531 89.425781 171.503906 C 89.355469 171.859375 89.25 172.207031 89.113281 172.546875 C 88.976562 172.882812 88.804688 173.203125 88.605469 173.503906 C 88.402344 173.808594 88.175781 174.089844 87.917969 174.347656 C 87.660156 174.605469 87.382812 174.835938 87.082031 175.042969 C 86.777344 175.246094 86.460938 175.417969 86.125 175.558594 C 84.828125 176.097656 83.515625 176.140625 82.1875 175.683594 C 81.433594 179.421875 81.433594 183.164062 82.179688 186.902344 C 82.238281 186.875 82.296875 186.847656 82.355469 186.820312 C 82.691406 186.679688 83.039062 186.570312 83.394531 186.496094 C 83.75 186.421875 84.109375 186.382812 84.472656 186.382812 C 84.835938 186.378906 85.199219 186.410156 85.554688 186.480469 C 85.914062 186.546875 86.257812 186.648438 86.597656 186.785156 C 86.933594 186.921875 87.253906 187.089844 87.558594 187.289062 C 87.863281 187.492188 88.144531 187.71875 88.40625 187.972656 C 88.664062 188.226562 88.894531 188.507812 89.101562 188.808594 C 89.304688 189.109375 89.480469 189.425781 89.621094 189.761719 L 89.636719 189.800781 C 89.777344 190.136719 89.882812 190.484375 89.957031 190.839844 C 90.027344 191.195312 90.0625 191.558594 90.0625 191.921875 C 90.066406 192.285156 90.03125 192.644531 89.960938 193.003906 C 89.890625 193.359375 89.785156 193.707031 89.648438 194.042969 C 89.511719 194.382812 89.339844 194.703125 89.140625 195.003906 C 88.9375 195.308594 88.710938 195.589844 88.453125 195.847656 C 88.195312 196.105469 87.917969 196.335938 87.617188 196.539062 C 87.316406 196.742188 86.996094 196.914062 86.660156 197.054688 C 86.589844 197.085938 86.515625 197.109375 86.441406 197.136719 C 88.554688 200.277344 91.191406 202.894531 94.347656 204.984375 C 94.632812 204.332031 95.027344 203.753906 95.53125 203.25 C 96.039062 202.75 96.621094 202.359375 97.273438 202.082031 C 97.609375 201.941406 97.957031 201.832031 98.3125 201.757812 C 98.667969 201.683594 99.027344 201.644531 99.390625 201.644531 C 99.753906 201.640625 100.117188 201.671875 100.472656 201.742188 C 100.832031 201.808594 101.179688 201.910156 101.515625 202.046875 C 101.851562 202.183594 102.171875 202.351562 102.476562 202.550781 C 102.78125 202.75 103.0625 202.980469 103.324219 203.234375 C 103.582031 203.488281 103.816406 203.769531 104.019531 204.070312 C 104.226562 204.371094 104.398438 204.6875 104.539062 205.023438 L 104.558594 205.0625 C 104.828125 205.71875 104.96875 206.402344 104.980469 207.117188 C 104.988281 207.828125 104.867188 208.515625 104.609375 209.179688 C 106.300781 209.5 108.003906 209.664062 109.722656 209.675781 L 109.722656 192.902344 C 108.605469 192.875 107.515625 192.6875 106.449219 192.34375 C 105.386719 192 104.390625 191.515625 103.464844 190.882812 C 102.542969 190.253906 101.726562 189.507812 101.015625 188.640625 C 100.308594 187.773438 99.734375 186.824219 99.300781 185.792969 C 99.003906 185.089844 98.78125 184.363281 98.625 183.617188 C 98.472656 182.867188 98.394531 182.113281 98.390625 181.347656 C 98.382812 180.585938 98.453125 179.828125 98.597656 179.078125 C 98.742188 178.328125 98.957031 177.597656 99.246094 176.890625 C 99.53125 176.183594 99.886719 175.511719 100.304688 174.871094 C 100.722656 174.234375 101.203125 173.644531 101.738281 173.101562 C 102.273438 172.554688 102.855469 172.070312 103.488281 171.640625 C 104.117188 171.210938 104.785156 170.847656 105.488281 170.550781 C 106.84375 169.980469 108.253906 169.679688 109.722656 169.644531 L 109.722656 152.851562 Z M 116.171875 154.34375 C 118.210938 154.34375 119.917969 156.171875 119.917969 158.53125 C 119.917969 158.617188 119.933594 158.699219 119.960938 158.78125 C 119.554688 159.167969 119.179688 159.605469 118.855469 160.101562 C 118.738281 160.273438 118.703125 160.460938 118.742188 160.667969 C 118.785156 160.871094 118.894531 161.03125 119.066406 161.144531 C 119.242188 161.257812 119.429688 161.292969 119.636719 161.25 C 119.839844 161.207031 119.996094 161.097656 120.109375 160.921875 C 121.960938 158.089844 125.417969 157.476562 127.96875 159.488281 C 130.519531 161.496094 131.125 165.484375 129.273438 168.3125 C 128.222656 169.921875 126.640625 170.796875 125.011719 170.898438 C 124.847656 170.910156 124.683594 170.902344 124.519531 170.898438 C 124.484375 169.15625 123.804688 167.4375 122.503906 166.183594 C 123.238281 165.0625 123.679688 163.703125 123.691406 162.238281 C 123.695312 162.03125 123.625 161.851562 123.480469 161.703125 C 123.335938 161.554688 123.160156 161.480469 122.953125 161.476562 C 122.742188 161.476562 122.566406 161.546875 122.417969 161.691406 C 122.269531 161.839844 122.195312 162.015625 122.195312 162.222656 C 122.167969 165.273438 119.925781 167.636719 117.257812 167.605469 C 114.589844 167.574219 112.394531 165.160156 112.421875 162.109375 C 112.421875 162.085938 112.421875 162.0625 112.417969 162.035156 C 112.417969 162.03125 112.417969 162.027344 112.417969 162.019531 L 112.421875 158.847656 L 112.425781 158.480469 C 112.449219 156.148438 114.144531 154.34375 116.171875 154.34375 Z M 121.542969 167.34375 C 123.347656 169.164062 123.523438 172.3125 121.898438 174.367188 C 121.769531 174.527344 121.632812 174.679688 121.492188 174.820312 C 121.425781 174.882812 121.355469 174.933594 121.289062 174.992188 C 121.238281 174.917969 121.191406 174.839844 121.136719 174.769531 C 120.15625 173.488281 118.726562 172.609375 117.066406 172.449219 C 117.039062 172.445312 117.015625 172.445312 116.992188 172.441406 C 116.789062 172.441406 116.613281 172.507812 116.46875 172.644531 C 116.320312 172.785156 116.242188 172.953125 116.230469 173.15625 C 116.222656 173.359375 116.285156 173.535156 116.417969 173.6875 C 116.550781 173.839844 116.71875 173.921875 116.917969 173.941406 C 119.363281 174.175781 121.230469 176.578125 121.003906 179.375 C 120.96875 179.816406 120.886719 180.230469 120.757812 180.625 C 120.691406 180.824219 120.703125 181.015625 120.796875 181.203125 C 120.890625 181.390625 121.035156 181.519531 121.238281 181.582031 C 121.4375 181.648438 121.628906 181.632812 121.816406 181.535156 C 122 181.4375 122.125 181.285156 122.183594 181.085938 C 122.347656 180.582031 122.453125 180.050781 122.496094 179.496094 C 122.589844 178.382812 122.410156 177.300781 122.023438 176.332031 C 122.402344 176.039062 122.753906 175.695312 123.070312 175.296875 C 123.753906 174.433594 124.191406 173.433594 124.394531 172.398438 C 126.140625 172.472656 127.882812 171.855469 129.253906 170.625 C 129.371094 170.519531 129.488281 170.40625 129.597656 170.292969 C 129.9375 169.945312 130.25 169.558594 130.527344 169.136719 C 130.546875 169.105469 130.5625 169.070312 130.582031 169.039062 C 133.078125 169.253906 135.089844 171.554688 135.089844 174.457031 C 135.089844 175.238281 134.941406 175.980469 134.675781 176.648438 C 134.667969 176.675781 134.652344 176.699219 134.640625 176.726562 C 133.742188 176.269531 132.804688 175.988281 131.855469 175.894531 C 130.941406 175.804688 130.027344 175.886719 129.144531 176.113281 C 128.859375 175.316406 128.324219 174.617188 127.566406 174.160156 C 127.433594 174.078125 127.292969 174.042969 127.136719 174.046875 C 126.972656 174.054688 126.824219 174.113281 126.695312 174.21875 C 126.570312 174.324219 126.484375 174.457031 126.445312 174.617188 C 126.40625 174.78125 126.417969 174.9375 126.484375 175.089844 C 126.546875 175.242188 126.652344 175.359375 126.792969 175.445312 C 127.78125 176.039062 128.183594 177.484375 127.617188 178.621094 C 127.527344 178.800781 127.421875 178.957031 127.304688 179.097656 C 127.164062 179.253906 127.097656 179.4375 127.113281 179.648438 C 127.125 179.859375 127.210938 180.03125 127.375 180.167969 C 127.535156 180.304688 127.71875 180.363281 127.929688 180.34375 C 128.140625 180.324219 128.308594 180.234375 128.441406 180.070312 C 128.640625 179.835938 128.8125 179.578125 128.953125 179.292969 C 129.222656 178.753906 129.359375 178.175781 129.375 177.601562 C 130.980469 177.144531 132.726562 177.308594 134.316406 178.242188 C 137.679688 180.210938 138.988281 184.886719 137.167969 188.632812 C 136.261719 190.492188 134.785156 191.75 133.121094 192.316406 C 132.375 192.570312 131.632812 192.503906 130.839844 192.085938 C 130.042969 191.671875 129.210938 190.878906 128.457031 189.703125 C 128.453125 189.695312 128.449219 189.691406 128.445312 189.683594 C 129.496094 188.855469 130.195312 187.539062 130.257812 186.054688 C 130.269531 185.84375 130.203125 185.660156 130.058594 185.503906 C 129.917969 185.347656 129.742188 185.269531 129.53125 185.261719 C 129.324219 185.257812 129.144531 185.324219 128.996094 185.46875 C 128.84375 185.609375 128.765625 185.785156 128.761719 185.992188 C 128.683594 187.839844 127.300781 189.183594 125.726562 189.101562 C 125.480469 189.089844 125.242188 189.042969 125.019531 188.96875 C 124.820312 188.902344 124.632812 188.914062 124.445312 189.007812 C 124.261719 189.101562 124.136719 189.242188 124.070312 189.441406 C 124.003906 189.636719 124.015625 189.828125 124.109375 190.011719 C 124.199219 190.199219 124.34375 190.324219 124.542969 190.390625 C 124.894531 190.507812 125.265625 190.582031 125.652344 190.597656 C 126.167969 190.625 126.667969 190.546875 127.132812 190.394531 C 127.152344 190.433594 127.171875 190.472656 127.195312 190.511719 C 128.054688 191.851562 129.046875 192.839844 130.144531 193.414062 C 131.242188 193.992188 132.46875 194.125 133.605469 193.734375 C 134.164062 193.542969 134.699219 193.285156 135.210938 192.972656 C 136.085938 194.675781 136.144531 196.851562 135.164062 198.660156 C 133.804688 201.164062 131.074219 202.042969 128.765625 200.878906 C 128.601562 198.179688 126.890625 195.757812 124.320312 195.019531 C 124.523438 193.777344 124.269531 192.453125 123.519531 191.355469 C 123.367188 191.125 123.15625 191.015625 122.882812 191.019531 C 122.773438 191.019531 122.671875 191.042969 122.574219 191.089844 C 122.476562 191.136719 122.394531 191.199219 122.324219 191.28125 C 122.253906 191.363281 122.203125 191.457031 122.175781 191.5625 C 122.144531 191.664062 122.136719 191.769531 122.152344 191.875 C 122.15625 191.902344 122.160156 191.925781 122.167969 191.949219 C 122.191406 192.039062 122.230469 192.125 122.28125 192.199219 C 123.273438 193.648438 122.992188 195.753906 121.695312 196.824219 C 121.492188 196.988281 121.28125 197.121094 121.0625 197.21875 C 120.867188 197.300781 120.726562 197.441406 120.648438 197.636719 C 120.570312 197.835938 120.574219 198.03125 120.660156 198.222656 C 120.75 198.417969 120.894531 198.550781 121.09375 198.621094 C 121.296875 198.691406 121.488281 198.679688 121.679688 198.585938 C 122.019531 198.429688 122.347656 198.230469 122.648438 197.980469 C 123.167969 197.550781 123.570312 197.023438 123.859375 196.445312 C 123.863281 196.445312 123.871094 196.449219 123.875 196.449219 C 126.257812 197.113281 127.765625 199.835938 127.140625 202.554688 C 126.667969 204.59375 125.183594 205.980469 123.46875 206.265625 C 123.324219 206.289062 123.179688 206.308594 123.03125 206.316406 C 122.742188 206.332031 122.445312 206.316406 122.144531 206.265625 C 121.996094 206.242188 121.847656 206.210938 121.699219 206.167969 C 121.460938 206.101562 121.238281 206.011719 121.023438 205.90625 C 121.21875 205.308594 121.332031 204.667969 121.332031 204 C 121.335938 203.796875 121.265625 203.621094 121.125 203.472656 C 120.984375 203.324219 120.8125 203.25 120.609375 203.242188 C 120.40625 203.234375 120.230469 203.296875 120.082031 203.4375 C 119.929688 203.574219 119.847656 203.742188 119.835938 203.945312 C 119.835938 203.964844 119.835938 203.980469 119.835938 204 C 119.835938 206.210938 118.332031 207.957031 116.464844 208.167969 C 116.339844 208.179688 116.214844 208.1875 116.085938 208.1875 C 114.046875 208.1875 112.339844 206.359375 112.339844 204.003906 C 112.339844 204 112.339844 204 112.339844 204 L 112.355469 195.039062 C 112.359375 195.007812 112.359375 194.976562 112.355469 194.945312 C 112.226562 191.949219 114.28125 189.476562 116.886719 189.265625 C 117.171875 190.042969 117.648438 190.75 118.3125 191.296875 C 118.613281 191.546875 118.941406 191.75 119.277344 191.902344 C 119.46875 191.992188 119.660156 192 119.855469 191.929688 C 120.054688 191.855469 120.195312 191.726562 120.28125 191.535156 C 120.367188 191.34375 120.371094 191.152344 120.296875 190.957031 C 120.222656 190.761719 120.089844 190.621094 119.898438 190.539062 C 119.679688 190.4375 119.464844 190.308594 119.261719 190.140625 C 117.964844 189.070312 117.683594 186.964844 118.675781 185.515625 C 118.851562 185.265625 118.871094 185.007812 118.726562 184.734375 C 118.585938 184.464844 118.359375 184.332031 118.054688 184.335938 C 117.789062 184.339844 117.585938 184.453125 117.441406 184.671875 C 116.800781 185.609375 116.523438 186.714844 116.582031 187.792969 C 115.671875 187.894531 114.828125 188.199219 114.082031 188.664062 C 113.03125 187.65625 112.351562 186.152344 112.375 184.464844 L 112.386719 178.050781 L 112.398438 171.554688 C 112.398438 171.535156 112.402344 171.515625 112.398438 171.496094 C 112.386719 170.082031 112.859375 168.800781 113.628906 167.832031 C 114.648438 168.617188 115.886719 169.089844 117.242188 169.105469 C 118.898438 169.125 120.402344 168.449219 121.542969 167.34375 Z M 121.542969 167.34375 " clip-rule="nonzero"/>
    </clipPath><linearGradient x1="-0.00336536" gradientTransform="matrix(57.867892, 0, 0, 56.843352, 81.626636, 152.843196)" y1="0" x2="1.017618" gradientUnits="userSpaceOnUse" y2="0" id="9f063d71cf"><stop stop-opacity="1" stop-color="rgb(93.699646%, 25.498962%, 21.199036%)" offset="0"/><stop stop-opacity="1" stop-color="rgb(93.710327%, 25.59967%, 21.208191%)" offset="0.0078125"/><stop stop-opacity="1" stop-color="rgb(93.739319%, 25.872803%, 21.232605%)" offset="0.015625"/><stop stop-opacity="1" stop-color="rgb(93.777466%, 26.219177%, 21.263123%)" offset="0.0234375"/><stop stop-opacity="1" stop-color="rgb(93.814087%, 26.567078%, 21.295166%)" offset="0.03125"/><stop stop-opacity="1" stop-color="rgb(93.852234%, 26.913452%, 21.325684%)" offset="0.0390625"/><stop stop-opacity="1" stop-color="rgb(93.888855%, 27.261353%, 21.356201%)" offset="0.046875"/><stop stop-opacity="1" stop-color="rgb(93.927002%, 27.607727%, 21.388245%)" offset="0.0546875"/><stop stop-opacity="1" stop-color="rgb(93.963623%, 27.954102%, 21.418762%)" offset="0.0625"/><stop stop-opacity="1" stop-color="rgb(94.00177%, 28.302002%, 21.450806%)" offset="0.0703125"/><stop stop-opacity="1" stop-color="rgb(94.038391%, 28.648376%, 21.481323%)" offset="0.078125"/><stop stop-opacity="1" stop-color="rgb(94.076538%, 28.996277%, 21.511841%)" offset="0.0859375"/><stop stop-opacity="1" stop-color="rgb(94.114685%, 29.342651%, 21.543884%)" offset="0.09375"/><stop stop-opacity="1" stop-color="rgb(94.151306%, 29.689026%, 21.574402%)" offset="0.101562"/><stop stop-opacity="1" stop-color="rgb(94.189453%, 30.036926%, 21.606445%)" offset="0.109375"/><stop stop-opacity="1" stop-color="rgb(94.226074%, 30.383301%, 21.636963%)" offset="0.117188"/><stop stop-opacity="1" stop-color="rgb(94.264221%, 30.731201%, 21.66748%)" offset="0.125"/><stop stop-opacity="1" stop-color="rgb(94.300842%, 31.077576%, 21.699524%)" offset="0.132812"/><stop stop-opacity="1" stop-color="rgb(94.338989%, 31.42395%, 21.730042%)" offset="0.140625"/><stop stop-opacity="1" stop-color="rgb(94.377136%, 31.771851%, 21.760559%)" offset="0.148438"/><stop stop-opacity="1" stop-color="rgb(94.413757%, 32.118225%, 21.792603%)" offset="0.15625"/><stop stop-opacity="1" stop-color="rgb(94.451904%, 32.466125%, 21.82312%)" offset="0.164062"/><stop stop-opacity="1" stop-color="rgb(94.488525%, 32.8125%, 21.855164%)" offset="0.171875"/><stop stop-opacity="1" stop-color="rgb(94.526672%, 33.158875%, 21.885681%)" offset="0.179688"/><stop stop-opacity="1" stop-color="rgb(94.563293%, 33.506775%, 21.916199%)" offset="0.1875"/><stop stop-opacity="1" stop-color="rgb(94.60144%, 33.853149%, 21.948242%)" offset="0.195312"/><stop stop-opacity="1" stop-color="rgb(94.639587%, 34.199524%, 21.97876%)" offset="0.203125"/><stop stop-opacity="1" stop-color="rgb(94.676208%, 34.547424%, 22.010803%)" offset="0.210938"/><stop stop-opacity="1" stop-color="rgb(94.714355%, 34.893799%, 22.041321%)" offset="0.21875"/><stop stop-opacity="1" stop-color="rgb(94.750977%, 35.241699%, 22.071838%)" offset="0.226562"/><stop stop-opacity="1" stop-color="rgb(94.789124%, 35.588074%, 22.103882%)" offset="0.234375"/><stop stop-opacity="1" stop-color="rgb(94.825745%, 35.934448%, 22.134399%)" offset="0.242188"/><stop stop-opacity="1" stop-color="rgb(94.863892%, 36.282349%, 22.166443%)" offset="0.25"/><stop stop-opacity="1" stop-color="rgb(94.902039%, 36.628723%, 22.19696%)" offset="0.257812"/><stop stop-opacity="1" stop-color="rgb(94.93866%, 36.976624%, 22.227478%)" offset="0.265625"/><stop stop-opacity="1" stop-color="rgb(94.976807%, 37.322998%, 22.259521%)" offset="0.273438"/><stop stop-opacity="1" stop-color="rgb(95.013428%, 37.669373%, 22.290039%)" offset="0.28125"/><stop stop-opacity="1" stop-color="rgb(95.051575%, 38.017273%, 22.320557%)" offset="0.289062"/><stop stop-opacity="1" stop-color="rgb(95.088196%, 38.363647%, 22.3526%)" offset="0.296875"/><stop stop-opacity="1" stop-color="rgb(95.126343%, 38.711548%, 22.383118%)" offset="0.304688"/><stop stop-opacity="1" stop-color="rgb(95.16449%, 39.057922%, 22.415161%)" offset="0.3125"/><stop stop-opacity="1" stop-color="rgb(95.201111%, 39.404297%, 22.445679%)" offset="0.320312"/><stop stop-opacity="1" stop-color="rgb(95.239258%, 39.752197%, 22.476196%)" offset="0.328125"/><stop stop-opacity="1" stop-color="rgb(95.275879%, 40.098572%, 22.50824%)" offset="0.335938"/><stop stop-opacity="1" stop-color="rgb(95.314026%, 40.446472%, 22.538757%)" offset="0.34375"/><stop stop-opacity="1" stop-color="rgb(95.350647%, 40.792847%, 22.570801%)" offset="0.351562"/><stop stop-opacity="1" stop-color="rgb(95.388794%, 41.139221%, 22.601318%)" offset="0.359375"/><stop stop-opacity="1" stop-color="rgb(95.426941%, 41.487122%, 22.631836%)" offset="0.367188"/><stop stop-opacity="1" stop-color="rgb(95.463562%, 41.833496%, 22.663879%)" offset="0.375"/><stop stop-opacity="1" stop-color="rgb(95.501709%, 42.181396%, 22.694397%)" offset="0.382812"/><stop stop-opacity="1" stop-color="rgb(95.53833%, 42.527771%, 22.724915%)" offset="0.390625"/><stop stop-opacity="1" stop-color="rgb(95.576477%, 42.874146%, 22.756958%)" offset="0.398438"/><stop stop-opacity="1" stop-color="rgb(95.613098%, 43.222046%, 22.787476%)" offset="0.40625"/><stop stop-opacity="1" stop-color="rgb(95.651245%, 43.56842%, 22.819519%)" offset="0.414062"/><stop stop-opacity="1" stop-color="rgb(95.689392%, 43.914795%, 22.850037%)" offset="0.421875"/><stop stop-opacity="1" stop-color="rgb(95.726013%, 44.262695%, 22.880554%)" offset="0.429688"/><stop stop-opacity="1" stop-color="rgb(95.76416%, 44.60907%, 22.912598%)" offset="0.4375"/><stop stop-opacity="1" stop-color="rgb(95.800781%, 44.95697%, 22.943115%)" offset="0.445312"/><stop stop-opacity="1" stop-color="rgb(95.838928%, 45.303345%, 22.975159%)" offset="0.453125"/><stop stop-opacity="1" stop-color="rgb(95.875549%, 45.649719%, 23.005676%)" offset="0.460938"/><stop stop-opacity="1" stop-color="rgb(95.913696%, 45.99762%, 23.036194%)" offset="0.46875"/><stop stop-opacity="1" stop-color="rgb(95.951843%, 46.343994%, 23.068237%)" offset="0.476562"/><stop stop-opacity="1" stop-color="rgb(95.988464%, 46.691895%, 23.098755%)" offset="0.484375"/><stop stop-opacity="1" stop-color="rgb(96.026611%, 47.038269%, 23.130798%)" offset="0.492187"/><stop stop-opacity="1" stop-color="rgb(96.063232%, 47.384644%, 23.161316%)" offset="0.5"/><stop stop-opacity="1" stop-color="rgb(96.101379%, 47.732544%, 23.191833%)" offset="0.507813"/><stop stop-opacity="1" stop-color="rgb(96.138%, 48.078918%, 23.223877%)" offset="0.515625"/><stop stop-opacity="1" stop-color="rgb(96.176147%, 48.426819%, 23.254395%)" offset="0.523438"/><stop stop-opacity="1" stop-color="rgb(96.212769%, 48.773193%, 23.284912%)" offset="0.53125"/><stop stop-opacity="1" stop-color="rgb(96.250916%, 49.119568%, 23.316956%)" offset="0.539062"/><stop stop-opacity="1" stop-color="rgb(96.289062%, 49.467468%, 23.347473%)" offset="0.546875"/><stop stop-opacity="1" stop-color="rgb(96.325684%, 49.813843%, 23.379517%)" offset="0.554688"/><stop stop-opacity="1" stop-color="rgb(96.363831%, 50.161743%, 23.410034%)" offset="0.5625"/><stop stop-opacity="1" stop-color="rgb(96.400452%, 50.508118%, 23.440552%)" offset="0.570312"/><stop stop-opacity="1" stop-color="rgb(96.438599%, 50.854492%, 23.472595%)" offset="0.578125"/><stop stop-opacity="1" stop-color="rgb(96.47522%, 51.202393%, 23.503113%)" offset="0.585938"/><stop stop-opacity="1" stop-color="rgb(96.513367%, 51.548767%, 23.535156%)" offset="0.59375"/><stop stop-opacity="1" stop-color="rgb(96.551514%, 51.896667%, 23.565674%)" offset="0.601562"/><stop stop-opacity="1" stop-color="rgb(96.588135%, 52.243042%, 23.596191%)" offset="0.609375"/><stop stop-opacity="1" stop-color="rgb(96.626282%, 52.589417%, 23.628235%)" offset="0.617187"/><stop stop-opacity="1" stop-color="rgb(96.662903%, 52.937317%, 23.658752%)" offset="0.625"/><stop stop-opacity="1" stop-color="rgb(96.70105%, 53.283691%, 23.68927%)" offset="0.632813"/><stop stop-opacity="1" stop-color="rgb(96.737671%, 53.631592%, 23.721313%)" offset="0.640625"/><stop stop-opacity="1" stop-color="rgb(96.775818%, 53.977966%, 23.751831%)" offset="0.648438"/><stop stop-opacity="1" stop-color="rgb(96.813965%, 54.324341%, 23.783875%)" offset="0.65625"/><stop stop-opacity="1" stop-color="rgb(96.850586%, 54.672241%, 23.814392%)" offset="0.664062"/><stop stop-opacity="1" stop-color="rgb(96.888733%, 55.018616%, 23.84491%)" offset="0.671875"/><stop stop-opacity="1" stop-color="rgb(96.925354%, 55.36499%, 23.876953%)" offset="0.679688"/><stop stop-opacity="1" stop-color="rgb(96.963501%, 55.712891%, 23.907471%)" offset="0.6875"/><stop stop-opacity="1" stop-color="rgb(97.000122%, 56.059265%, 23.939514%)" offset="0.695312"/><stop stop-opacity="1" stop-color="rgb(97.038269%, 56.407166%, 23.970032%)" offset="0.703125"/><stop stop-opacity="1" stop-color="rgb(97.076416%, 56.75354%, 24.000549%)" offset="0.710938"/><stop stop-opacity="1" stop-color="rgb(97.113037%, 57.099915%, 24.032593%)" offset="0.71875"/><stop stop-opacity="1" stop-color="rgb(97.151184%, 57.447815%, 24.06311%)" offset="0.726562"/><stop stop-opacity="1" stop-color="rgb(97.187805%, 57.794189%, 24.095154%)" offset="0.734375"/><stop stop-opacity="1" stop-color="rgb(97.225952%, 58.14209%, 24.125671%)" offset="0.742187"/><stop stop-opacity="1" stop-color="rgb(97.262573%, 58.488464%, 24.156189%)" offset="0.75"/><stop stop-opacity="1" stop-color="rgb(97.30072%, 58.834839%, 24.188232%)" offset="0.757813"/><stop stop-opacity="1" stop-color="rgb(97.338867%, 59.182739%, 24.21875%)" offset="0.765625"/><stop stop-opacity="1" stop-color="rgb(97.375488%, 59.529114%, 24.249268%)" offset="0.773438"/><stop stop-opacity="1" stop-color="rgb(97.413635%, 59.877014%, 24.281311%)" offset="0.78125"/><stop stop-opacity="1" stop-color="rgb(97.450256%, 60.223389%, 24.311829%)" offset="0.789062"/><stop stop-opacity="1" stop-color="rgb(97.488403%, 60.569763%, 24.343872%)" offset="0.796875"/><stop stop-opacity="1" stop-color="rgb(97.525024%, 60.917664%, 24.37439%)" offset="0.804688"/><stop stop-opacity="1" stop-color="rgb(97.563171%, 61.264038%, 24.404907%)" offset="0.8125"/><stop stop-opacity="1" stop-color="rgb(97.601318%, 61.611938%, 24.436951%)" offset="0.820312"/><stop stop-opacity="1" stop-color="rgb(97.637939%, 61.958313%, 24.467468%)" offset="0.828125"/><stop stop-opacity="1" stop-color="rgb(97.676086%, 62.304688%, 24.499512%)" offset="0.835938"/><stop stop-opacity="1" stop-color="rgb(97.712708%, 62.652588%, 24.530029%)" offset="0.84375"/><stop stop-opacity="1" stop-color="rgb(97.750854%, 62.998962%, 24.560547%)" offset="0.851562"/><stop stop-opacity="1" stop-color="rgb(97.787476%, 63.346863%, 24.59259%)" offset="0.859375"/><stop stop-opacity="1" stop-color="rgb(97.825623%, 63.693237%, 24.623108%)" offset="0.867187"/><stop stop-opacity="1" stop-color="rgb(97.86377%, 64.039612%, 24.653625%)" offset="0.875"/><stop stop-opacity="1" stop-color="rgb(97.900391%, 64.387512%, 24.685669%)" offset="0.882813"/><stop stop-opacity="1" stop-color="rgb(97.938538%, 64.733887%, 24.716187%)" offset="0.890625"/><stop stop-opacity="1" stop-color="rgb(97.975159%, 65.080261%, 24.74823%)" offset="0.898438"/><stop stop-opacity="1" stop-color="rgb(98.013306%, 65.428162%, 24.778748%)" offset="0.90625"/><stop stop-opacity="1" stop-color="rgb(98.049927%, 65.774536%, 24.809265%)" offset="0.914062"/><stop stop-opacity="1" stop-color="rgb(98.088074%, 66.122437%, 24.841309%)" offset="0.921875"/><stop stop-opacity="1" stop-color="rgb(98.126221%, 66.468811%, 24.871826%)" offset="0.929688"/><stop stop-opacity="1" stop-color="rgb(98.162842%, 66.815186%, 24.90387%)" offset="0.9375"/><stop stop-opacity="1" stop-color="rgb(98.200989%, 67.163086%, 24.934387%)" offset="0.945312"/><stop stop-opacity="1" stop-color="rgb(98.23761%, 67.50946%, 24.964905%)" offset="0.953125"/><stop stop-opacity="1" stop-color="rgb(98.275757%, 67.857361%, 24.996948%)" offset="0.960938"/><stop stop-opacity="1" stop-color="rgb(98.312378%, 68.203735%, 25.027466%)" offset="0.96875"/><stop stop-opacity="1" stop-color="rgb(98.350525%, 68.55011%, 25.059509%)" offset="0.976562"/><stop stop-opacity="1" stop-color="rgb(98.384094%, 68.861389%, 25.086975%)" offset="0.984375"/><stop stop-opacity="1" stop-color="rgb(98.399353%, 68.998718%, 25.099182%)" offset="1"/></linearGradient>
    </defs>
    
    <g clip-path="url(#e32b6be39b)">
        <g clip-path="url(#1c92517d36)">
            <path fill="url(#9f063d71cf)" d="M 81.433594 152.84375 L 81.433594 209.6875 L 140.515625 209.6875 L 140.515625 152.84375 Z M 81.433594 152.84375 " fill-rule="nonzero"/></g></g><g fill="#000000" fill-opacity="1"><g transform="translate(150.03515, 197.362823)"><g><path d="M 22.328125 7.46875 C 21.203125 7 19.851562 6.082031 18.28125 4.71875 C 16.71875 3.351562 15.460938 1.953125 14.515625 0.515625 C 14.359375 0.546875 14.09375 0.5625 13.71875 0.5625 C 9.613281 0.5625 6.679688 -0.492188 4.921875 -2.609375 C 3.171875 -4.722656 2.296875 -7.847656 2.296875 -11.984375 L 2.296875 -26.125 C 2.296875 -30.269531 3.171875 -33.382812 4.921875 -35.46875 C 6.679688 -37.550781 9.613281 -38.59375 13.71875 -38.59375 C 17.851562 -38.59375 20.804688 -37.539062 22.578125 -35.4375 C 24.347656 -33.332031 25.234375 -30.226562 25.234375 -26.125 L 25.234375 -11.984375 C 25.234375 -9.191406 24.832031 -6.863281 24.03125 -5 C 23.238281 -3.132812 21.960938 -1.75 20.203125 -0.84375 C 21.804688 0.875 23.109375 1.984375 24.109375 2.484375 Z M 13.71875 -5.40625 C 14.914062 -5.40625 15.703125 -5.800781 16.078125 -6.59375 C 16.453125 -7.394531 16.640625 -8.488281 16.640625 -9.875 L 16.640625 -28.203125 C 16.640625 -29.609375 16.453125 -30.703125 16.078125 -31.484375 C 15.703125 -32.273438 14.914062 -32.671875 13.71875 -32.671875 C 12.53125 -32.671875 11.765625 -32.285156 11.421875 -31.515625 C 11.078125 -30.742188 10.90625 -29.640625 10.90625 -28.203125 L 10.90625 -9.875 C 10.90625 -8.488281 11.078125 -7.394531 11.421875 -6.59375 C 11.765625 -5.800781 12.53125 -5.40625 13.71875 -5.40625 Z M 13.71875 -5.40625 "/></g></g></g><g fill="#000000" fill-opacity="1"><g transform="translate(177.572528, 197.362823)"><g><path d="M 7.1875 0.46875 C 5.5625 0.46875 4.304688 -0.117188 3.421875 -1.296875 C 2.546875 -2.472656 2.109375 -4 2.109375 -5.875 L 2.109375 -27.171875 L 9.78125 -27.171875 L 9.78125 -6.765625 C 9.78125 -6.078125 9.90625 -5.5625 10.15625 -5.21875 C 10.40625 -4.875 10.8125 -4.703125 11.375 -4.703125 C 11.875 -4.703125 12.625 -4.984375 13.625 -5.546875 L 13.625 -27.171875 L 21.25 -27.171875 L 21.25 0 L 13.625 0 L 13.625 -2.484375 C 11.5 -0.515625 9.351562 0.46875 7.1875 0.46875 Z M 7.1875 0.46875 "/></g></g></g><g fill="#000000" fill-opacity="1"><g transform="translate(201.256555, 197.362823)"><g><path d="M 2.390625 -37.078125 L 10.109375 -37.078125 L 10.109375 -31.765625 L 2.390625 -31.765625 Z M 2.4375 -27.171875 L 10.109375 -27.171875 L 10.109375 0 L 2.4375 0 Z M 2.4375 -27.171875 "/></g></g></g><g fill="#000000" fill-opacity="1"><g transform="translate(213.709466, 197.362823)"><g><path d="M 11.234375 0.46875 C 8.285156 0.46875 5.976562 -0.328125 4.3125 -1.921875 C 2.65625 -3.523438 1.828125 -5.75 1.828125 -8.59375 L 1.828125 -18.5625 C 1.828125 -21.445312 2.648438 -23.679688 4.296875 -25.265625 C 5.941406 -26.847656 8.253906 -27.640625 11.234375 -27.640625 C 14.179688 -27.640625 16.441406 -26.945312 18.015625 -25.5625 C 19.597656 -24.1875 20.390625 -22.148438 20.390625 -19.453125 L 20.390625 -16.59375 L 13.015625 -16.59375 L 13.015625 -19.6875 C 13.015625 -20.726562 12.863281 -21.441406 12.5625 -21.828125 C 12.269531 -22.222656 11.828125 -22.421875 11.234375 -22.421875 C 10.640625 -22.421875 10.207031 -22.175781 9.9375 -21.6875 C 9.675781 -21.207031 9.546875 -20.382812 9.546875 -19.21875 L 9.546875 -7.9375 C 9.546875 -6.78125 9.6875 -5.96875 9.96875 -5.5 C 10.25 -5.03125 10.6875 -4.796875 11.28125 -4.796875 C 11.875 -4.796875 12.3125 -5 12.59375 -5.40625 C 12.875 -5.8125 13.015625 -6.5 13.015625 -7.46875 L 13.015625 -11.09375 L 20.390625 -11.09375 L 20.390625 -7.796875 C 20.390625 -5.109375 19.59375 -3.054688 18 -1.640625 C 16.40625 -0.234375 14.148438 0.46875 11.234375 0.46875 Z M 11.234375 0.46875 "/></g></g></g><g fill="#000000" fill-opacity="1"><g transform="translate(235.701782, 197.362823)"><g><path d="M 2.390625 -38.0625 L 10.015625 -38.0625 L 10.015625 -16.96875 L 16.6875 -27.171875 L 25.28125 -27.171875 L 18.046875 -16.03125 L 25.1875 0 L 16.828125 0 L 12.03125 -12.921875 L 10.015625 -10.34375 L 10.015625 0 L 2.390625 0 Z M 2.390625 -38.0625 "/></g></g></g><g fill="#000000" fill-opacity="1"><g transform="translate(261.124521, 197.362823)"><g><path d="M 12.734375 0.5625 C 8.972656 0.5625 6.289062 -0.578125 4.6875 -2.859375 C 3.09375 -5.148438 2.296875 -8.394531 2.296875 -12.59375 L 2.296875 -25.375 C 2.296875 -29.664062 3.164062 -32.941406 4.90625 -35.203125 C 6.644531 -37.460938 9.582031 -38.59375 13.71875 -38.59375 C 17.695312 -38.59375 20.546875 -37.617188 22.265625 -35.671875 C 23.992188 -33.734375 24.859375 -30.992188 24.859375 -27.453125 L 24.859375 -25 L 16.640625 -25 L 16.640625 -28.109375 C 16.640625 -29.609375 16.46875 -30.742188 16.125 -31.515625 C 15.78125 -32.285156 15.007812 -32.671875 13.8125 -32.671875 C 12.59375 -32.671875 11.800781 -32.242188 11.4375 -31.390625 C 11.082031 -30.546875 10.90625 -29.375 10.90625 -27.875 L 10.90625 -10.25 C 10.90625 -8.738281 11.128906 -7.550781 11.578125 -6.6875 C 12.035156 -5.832031 12.859375 -5.40625 14.046875 -5.40625 C 16.242188 -5.40625 17.34375 -7.050781 17.34375 -10.34375 L 17.34375 -14.8125 L 13.90625 -14.8125 L 13.90625 -19.734375 L 24.90625 -19.734375 L 24.90625 0 L 19.359375 0 L 18.890625 -3.15625 C 17.703125 -0.675781 15.648438 0.5625 12.734375 0.5625 Z M 12.734375 0.5625 "/></g></g></g><g fill="#000000" fill-opacity="1"><g transform="translate(288.47393, 197.362823)"><g><path d="M 2.390625 -37.078125 L 10.109375 -37.078125 L 10.109375 -31.765625 L 2.390625 -31.765625 Z M 2.4375 -27.171875 L 10.109375 -27.171875 L 10.109375 0 L 2.4375 0 Z M 2.4375 -27.171875 "/></g></g></g><g fill="#000000" fill-opacity="1"><g transform="translate(300.926841, 197.362823)"><g><path d="M 10.765625 0.46875 C 8.347656 0.46875 6.347656 -0.0664062 4.765625 -1.140625 C 3.179688 -2.222656 1.90625 -3.957031 0.9375 -6.34375 L 6.15625 -8.640625 C 6.65625 -7.390625 7.242188 -6.421875 7.921875 -5.734375 C 8.597656 -5.046875 9.34375 -4.703125 10.15625 -4.703125 C 11.34375 -4.703125 11.9375 -5.171875 11.9375 -6.109375 C 11.9375 -6.796875 11.703125 -7.410156 11.234375 -7.953125 C 10.765625 -8.503906 9.742188 -9.425781 8.171875 -10.71875 L 6.203125 -12.359375 C 4.578125 -13.734375 3.394531 -14.984375 2.65625 -16.109375 C 1.914062 -17.242188 1.546875 -18.59375 1.546875 -20.15625 C 1.546875 -21.601562 1.929688 -22.890625 2.703125 -24.015625 C 3.472656 -25.140625 4.5 -26.023438 5.78125 -26.671875 C 7.0625 -27.316406 8.441406 -27.640625 9.921875 -27.640625 C 12.140625 -27.640625 13.992188 -27.035156 15.484375 -25.828125 C 16.972656 -24.617188 18.03125 -22.890625 18.65625 -20.640625 L 13.71875 -18.375 C 13.40625 -19.375 12.921875 -20.273438 12.265625 -21.078125 C 11.609375 -21.878906 10.890625 -22.28125 10.109375 -22.28125 C 9.609375 -22.28125 9.207031 -22.140625 8.90625 -21.859375 C 8.601562 -21.578125 8.453125 -21.203125 8.453125 -20.734375 C 8.453125 -20.160156 8.757812 -19.546875 9.375 -18.890625 C 9.988281 -18.234375 10.953125 -17.375 12.265625 -16.3125 L 14.1875 -14.609375 C 15.757812 -13.296875 16.96875 -12.066406 17.8125 -10.921875 C 18.65625 -9.785156 19.078125 -8.445312 19.078125 -6.90625 C 19.078125 -5.375 18.691406 -4.050781 17.921875 -2.9375 C 17.160156 -1.820312 16.144531 -0.972656 14.875 -0.390625 C 13.601562 0.179688 12.234375 0.46875 10.765625 0.46875 Z M 10.765625 0.46875 "/></g></g></g><g fill="#000000" fill-opacity="1"><g transform="translate(320.851496, 197.362823)"><g><path d="M 10.8125 0.28125 C 8.800781 0.28125 7.25 -0.00390625 6.15625 -0.578125 C 5.0625 -1.160156 4.296875 -2 3.859375 -3.09375 C 3.421875 -4.195312 3.203125 -5.625 3.203125 -7.375 L 3.203125 -22.140625 L 0.5625 -22.140625 L 0.5625 -27.171875 L 3.203125 -27.171875 L 3.203125 -35.4375 L 10.953125 -35.4375 L 10.953125 -27.171875 L 14.8125 -27.171875 L 14.8125 -22.140625 L 10.953125 -22.140625 L 10.953125 -8.125 C 10.953125 -7.375 11.160156 -6.816406 11.578125 -6.453125 C 12.003906 -6.097656 12.59375 -5.921875 13.34375 -5.921875 C 13.96875 -5.921875 14.660156 -5.984375 15.421875 -6.109375 L 15.421875 -0.09375 C 13.910156 0.15625 12.375 0.28125 10.8125 0.28125 Z M 10.8125 0.28125 "/></g></g></g>
</svg>