<svg xmlns="http://www.w3.org/2000/svg" xmlns:xlink="http://www.w3.org/1999/xlink" width="500" zoomAndPan="magnify" viewBox="0 0 375 374.999991" height="500" preserveAspectRatio="xMidYMid meet" version="1.0"><defs><g/><clipPath id="70a10540f7"><path d="M 104 171 L 145 171 L 145 210.410156 L 104 210.410156 Z M 104 171 " clip-rule="nonzero"/></clipPath><clipPath id="cc99d29a60"><path d="M 128.019531 171.546875 C 126.046875 171.546875 124.480469 173.25 124.417969 175.316406 C 124.417969 175.335938 124.414062 175.359375 124.414062 175.378906 L 124.414062 175.402344 C 124.414062 175.414062 124.414062 175.421875 124.414062 175.433594 C 124.414062 175.453125 124.414062 175.46875 124.414062 175.484375 L 124.410156 177.96875 C 124.410156 178.007812 124.414062 178.042969 124.421875 178.082031 C 124.457031 179.226562 124.871094 180.273438 125.535156 181.078125 C 124.839844 181.914062 124.417969 183.007812 124.402344 184.203125 C 124.402344 184.226562 124.398438 184.253906 124.398438 184.277344 L 124.382812 193.148438 C 124.382812 193.148438 124.382812 193.148438 124.382812 193.152344 C 124.382812 193.152344 124.382812 193.152344 124.382812 193.15625 L 124.382812 193.222656 C 124.382812 193.25 124.382812 193.28125 124.390625 193.308594 C 124.390625 193.3125 124.390625 193.3125 124.390625 193.3125 C 124.414062 194.632812 124.929688 195.828125 125.769531 196.679688 C 124.902344 197.554688 124.371094 198.800781 124.371094 200.15625 C 124.371094 200.171875 124.371094 200.191406 124.371094 200.207031 L 124.355469 206.515625 C 124.355469 206.515625 124.355469 206.519531 124.355469 206.519531 C 124.355469 206.523438 124.355469 206.523438 124.355469 206.523438 L 124.355469 206.585938 C 124.355469 206.617188 124.359375 206.648438 124.363281 206.679688 C 124.441406 208.726562 126 210.410156 127.960938 210.410156 C 129.191406 210.410156 130.261719 209.746094 130.910156 208.75 C 131.113281 208.84375 131.320312 208.929688 131.542969 208.992188 C 133.761719 209.605469 136.011719 208.121094 136.558594 205.765625 C 136.582031 205.667969 136.597656 205.574219 136.613281 205.476562 C 138.597656 206.222656 140.878906 205.371094 141.976562 203.359375 C 142.847656 201.757812 142.777344 199.851562 141.945312 198.363281 C 142.515625 197.851562 143.007812 197.214844 143.371094 196.464844 C 144.746094 193.652344 143.957031 190.214844 141.589844 188.417969 C 141.878906 187.785156 142.050781 187.074219 142.050781 186.324219 C 142.050781 184.007812 140.492188 182.042969 138.410156 181.65625 C 139.28125 179.425781 138.660156 176.773438 136.761719 175.285156 C 135.664062 174.421875 134.328125 174.132812 133.074219 174.355469 C 132.558594 174.449219 132.054688 174.632812 131.585938 174.898438 C 131.34375 173.027344 129.855469 171.546875 128.019531 171.546875 Z M 123.589844 171.554688 C 122.351562 171.566406 121.125 171.691406 119.910156 171.933594 L 119.914062 171.9375 C 119.929688 171.96875 119.945312 172 119.960938 172.035156 L 119.96875 172.058594 C 120.164062 172.523438 120.261719 173.007812 120.261719 173.511719 C 120.265625 174.011719 120.167969 174.496094 119.976562 174.960938 C 119.785156 175.429688 119.511719 175.839844 119.15625 176.195312 C 118.800781 176.554688 118.390625 176.828125 117.921875 177.023438 C 117.457031 177.21875 116.972656 177.316406 116.46875 177.316406 C 115.964844 177.320312 115.476562 177.226562 115.011719 177.035156 C 114.542969 176.84375 114.128906 176.574219 113.769531 176.21875 C 113.410156 175.867188 113.132812 175.457031 112.9375 174.992188 C 112.921875 174.949219 112.90625 174.902344 112.890625 174.859375 C 110.769531 176.285156 109 178.054688 107.582031 180.171875 C 108.429688 180.585938 109.035156 181.222656 109.40625 182.085938 L 109.417969 182.113281 C 109.613281 182.578125 109.710938 183.0625 109.710938 183.5625 C 109.710938 184.066406 109.617188 184.550781 109.425781 185.015625 C 109.234375 185.480469 108.960938 185.890625 108.605469 186.25 C 108.25 186.605469 107.835938 186.882812 107.371094 187.074219 C 106.480469 187.445312 105.578125 187.476562 104.667969 187.164062 C 104.148438 189.71875 104.148438 192.277344 104.660156 194.832031 C 104.703125 194.8125 104.742188 194.792969 104.78125 194.777344 C 105.246094 194.578125 105.730469 194.480469 106.238281 194.476562 C 106.742188 194.472656 107.226562 194.5625 107.695312 194.753906 C 108.164062 194.941406 108.578125 195.210938 108.9375 195.5625 C 109.296875 195.917969 109.578125 196.324219 109.773438 196.785156 L 109.785156 196.8125 C 109.980469 197.277344 110.078125 197.761719 110.078125 198.261719 C 110.082031 198.765625 109.984375 199.25 109.792969 199.714844 C 109.601562 200.179688 109.328125 200.589844 108.972656 200.949219 C 108.617188 201.304688 108.207031 201.578125 107.738281 201.773438 C 107.691406 201.792969 107.640625 201.8125 107.589844 201.828125 C 109.042969 203.976562 110.855469 205.765625 113.023438 207.195312 C 113.429688 206.265625 114.097656 205.605469 115.035156 205.210938 C 115.5 205.015625 115.984375 204.914062 116.488281 204.910156 C 116.992188 204.90625 117.480469 205 117.949219 205.1875 C 118.417969 205.375 118.832031 205.644531 119.191406 205.996094 C 119.550781 206.351562 119.828125 206.757812 120.027344 207.222656 L 120.039062 207.246094 C 120.425781 208.179688 120.4375 209.117188 120.074219 210.0625 C 121.238281 210.28125 122.40625 210.394531 123.589844 210.402344 L 123.589844 198.933594 C 122.820312 198.914062 122.070312 198.789062 121.339844 198.554688 C 120.609375 198.320312 119.925781 197.984375 119.289062 197.554688 C 118.652344 197.125 118.09375 196.613281 117.605469 196.019531 C 117.117188 195.429688 116.726562 194.777344 116.425781 194.074219 C 116.222656 193.59375 116.066406 193.097656 115.964844 192.585938 C 115.859375 192.074219 115.804688 191.558594 115.800781 191.035156 C 115.796875 190.511719 115.84375 189.996094 115.945312 189.480469 C 116.042969 188.96875 116.191406 188.472656 116.386719 187.988281 C 116.585938 187.503906 116.828125 187.042969 117.117188 186.609375 C 117.402344 186.171875 117.730469 185.769531 118.101562 185.394531 C 118.46875 185.023438 118.871094 184.691406 119.304688 184.398438 C 119.738281 184.105469 120.195312 183.855469 120.675781 183.652344 C 121.609375 183.261719 122.578125 183.058594 123.589844 183.035156 Z M 128.019531 172.570312 C 129.421875 172.570312 130.59375 173.824219 130.59375 175.433594 C 130.59375 175.492188 130.605469 175.550781 130.625 175.609375 C 130.34375 175.871094 130.085938 176.167969 129.863281 176.507812 C 129.785156 176.625 129.757812 176.753906 129.789062 176.894531 C 129.816406 177.035156 129.890625 177.144531 130.011719 177.222656 C 130.128906 177.300781 130.257812 177.324219 130.398438 177.292969 C 130.539062 177.265625 130.648438 177.191406 130.726562 177.070312 C 131.996094 175.132812 134.375 174.714844 136.125 176.089844 C 137.878906 177.464844 138.296875 180.1875 137.023438 182.125 C 136.300781 183.222656 135.214844 183.820312 134.09375 183.890625 C 133.980469 183.898438 133.871094 183.894531 133.757812 183.890625 C 133.730469 182.699219 133.265625 181.523438 132.371094 180.667969 C 132.875 179.902344 133.179688 178.972656 133.1875 177.972656 C 133.191406 177.828125 133.140625 177.707031 133.042969 177.605469 C 132.941406 177.503906 132.820312 177.449219 132.679688 177.449219 C 132.535156 177.449219 132.414062 177.496094 132.3125 177.597656 C 132.210938 177.695312 132.160156 177.816406 132.160156 177.960938 C 132.140625 180.042969 130.601562 181.660156 128.765625 181.640625 C 126.933594 181.617188 125.421875 179.964844 125.441406 177.882812 C 125.441406 177.867188 125.441406 177.847656 125.441406 177.832031 C 125.441406 177.828125 125.441406 177.824219 125.441406 177.820312 L 125.445312 175.652344 L 125.445312 175.398438 C 125.460938 173.804688 126.625 172.570312 128.019531 172.570312 Z M 131.710938 181.460938 C 132.949219 182.707031 133.074219 184.859375 131.953125 186.261719 C 131.867188 186.371094 131.773438 186.476562 131.675781 186.570312 C 131.632812 186.613281 131.582031 186.648438 131.535156 186.6875 C 131.5 186.636719 131.46875 186.585938 131.429688 186.535156 C 130.757812 185.660156 129.777344 185.0625 128.632812 184.949219 C 128.617188 184.949219 128.601562 184.945312 128.582031 184.945312 C 128.445312 184.945312 128.324219 184.992188 128.222656 185.085938 C 128.121094 185.179688 128.066406 185.296875 128.0625 185.433594 C 128.054688 185.574219 128.097656 185.695312 128.1875 185.796875 C 128.28125 185.902344 128.394531 185.957031 128.535156 185.96875 C 130.214844 186.132812 131.496094 187.773438 131.34375 189.6875 C 131.316406 189.984375 131.257812 190.273438 131.171875 190.539062 C 131.125 190.675781 131.132812 190.808594 131.199219 190.9375 C 131.261719 191.066406 131.363281 191.152344 131.5 191.195312 C 131.636719 191.238281 131.769531 191.226562 131.898438 191.160156 C 132.023438 191.09375 132.109375 190.992188 132.152344 190.855469 C 132.261719 190.511719 132.335938 190.148438 132.367188 189.769531 C 132.429688 189.007812 132.308594 188.269531 132.039062 187.605469 C 132.300781 187.40625 132.542969 187.167969 132.761719 186.898438 C 133.230469 186.308594 133.53125 185.625 133.671875 184.914062 C 134.871094 184.96875 136.066406 184.542969 137.007812 183.703125 C 137.089844 183.632812 137.167969 183.554688 137.246094 183.476562 C 137.480469 183.238281 137.695312 182.976562 137.882812 182.683594 C 137.898438 182.664062 137.910156 182.640625 137.921875 182.617188 C 139.636719 182.765625 141.019531 184.339844 141.019531 186.324219 C 141.019531 186.859375 140.917969 187.367188 140.738281 187.824219 C 140.730469 187.839844 140.71875 187.855469 140.710938 187.875 C 140.09375 187.5625 139.449219 187.371094 138.800781 187.304688 C 138.167969 187.242188 137.539062 187.300781 136.933594 187.457031 C 136.738281 186.910156 136.371094 186.433594 135.847656 186.121094 C 135.757812 186.066406 135.660156 186.039062 135.554688 186.042969 C 135.300781 186.054688 135.140625 186.1875 135.078125 186.433594 C 135.019531 186.679688 135.097656 186.871094 135.320312 187 C 136 187.402344 136.273438 188.394531 135.882812 189.171875 C 135.824219 189.292969 135.75 189.402344 135.671875 189.496094 C 135.574219 189.601562 135.527344 189.726562 135.539062 189.871094 C 135.546875 190.015625 135.605469 190.136719 135.71875 190.230469 C 135.828125 190.324219 135.953125 190.363281 136.097656 190.347656 C 136.242188 190.335938 136.359375 190.273438 136.453125 190.160156 C 136.589844 190.003906 136.707031 189.824219 136.804688 189.628906 C 136.988281 189.261719 137.082031 188.867188 137.09375 188.472656 C 138.195312 188.160156 139.398438 188.273438 140.488281 188.910156 C 142.800781 190.257812 143.699219 193.453125 142.449219 196.015625 C 141.828125 197.285156 140.808594 198.144531 139.667969 198.535156 C 139.15625 198.707031 138.644531 198.660156 138.097656 198.375 C 137.550781 198.089844 136.980469 197.550781 136.460938 196.746094 C 136.460938 196.742188 136.457031 196.738281 136.453125 196.734375 C 137.175781 196.167969 137.65625 195.265625 137.699219 194.25 C 137.707031 194.105469 137.664062 193.980469 137.5625 193.875 C 137.464844 193.769531 137.34375 193.714844 137.199219 193.710938 C 137.058594 193.707031 136.933594 193.753906 136.832031 193.851562 C 136.730469 193.949219 136.675781 194.066406 136.671875 194.210938 C 136.617188 195.472656 135.667969 196.390625 134.585938 196.335938 C 134.417969 196.328125 134.253906 196.296875 134.097656 196.246094 C 133.964844 196.199219 133.832031 196.207031 133.707031 196.269531 C 133.578125 196.335938 133.492188 196.433594 133.445312 196.566406 C 133.402344 196.703125 133.410156 196.832031 133.472656 196.957031 C 133.539062 197.085938 133.636719 197.171875 133.769531 197.214844 C 134.011719 197.296875 134.269531 197.347656 134.535156 197.359375 C 134.890625 197.378906 135.230469 197.324219 135.554688 197.21875 C 135.566406 197.246094 135.578125 197.273438 135.597656 197.300781 C 136.183594 198.214844 136.867188 198.890625 137.621094 199.285156 C 138.378906 199.679688 139.21875 199.769531 140 199.503906 C 140.382812 199.375 140.753906 199.195312 141.105469 198.980469 C 141.703125 200.144531 141.742188 201.632812 141.070312 202.871094 C 140.136719 204.582031 138.257812 205.183594 136.671875 204.390625 C 136.5625 202.542969 135.386719 200.886719 133.617188 200.382812 C 133.757812 199.53125 133.585938 198.625 133.070312 197.875 C 132.964844 197.71875 132.820312 197.644531 132.632812 197.644531 C 132.476562 197.648438 132.347656 197.707031 132.246094 197.828125 C 132.148438 197.945312 132.109375 198.078125 132.128906 198.230469 C 132.132812 198.25 132.136719 198.265625 132.140625 198.28125 C 132.15625 198.34375 132.183594 198.402344 132.21875 198.453125 C 132.902344 199.445312 132.707031 200.882812 131.816406 201.613281 C 131.675781 201.730469 131.53125 201.820312 131.382812 201.886719 C 131.246094 201.941406 131.152344 202.035156 131.097656 202.171875 C 131.042969 202.304688 131.046875 202.441406 131.105469 202.574219 C 131.164062 202.707031 131.265625 202.796875 131.402344 202.84375 C 131.539062 202.894531 131.675781 202.882812 131.804688 202.820312 C 132.039062 202.714844 132.261719 202.574219 132.46875 202.40625 C 132.828125 202.113281 133.105469 201.753906 133.304688 201.355469 C 133.304688 201.359375 133.308594 201.359375 133.3125 201.359375 C 134.953125 201.8125 135.988281 203.675781 135.558594 205.535156 C 135.234375 206.925781 134.214844 207.875 133.03125 208.070312 C 132.933594 208.085938 132.835938 208.097656 132.734375 208.105469 C 132.535156 208.117188 132.328125 208.105469 132.125 208.070312 C 132.023438 208.054688 131.921875 208.03125 131.816406 208.003906 C 131.65625 207.957031 131.503906 207.894531 131.351562 207.824219 C 131.488281 207.414062 131.566406 206.976562 131.566406 206.519531 C 131.566406 206.382812 131.519531 206.261719 131.425781 206.160156 C 131.328125 206.058594 131.210938 206.007812 131.070312 206.003906 C 130.929688 205.996094 130.808594 206.042969 130.707031 206.136719 C 130.601562 206.230469 130.546875 206.34375 130.539062 206.484375 C 130.539062 206.496094 130.539062 206.507812 130.539062 206.519531 C 130.539062 208.03125 129.503906 209.226562 128.222656 209.371094 C 128.136719 209.378906 128.050781 209.382812 127.960938 209.382812 C 126.558594 209.382812 125.386719 208.132812 125.386719 206.523438 C 125.386719 206.523438 125.386719 206.519531 125.386719 206.519531 L 125.398438 200.394531 C 125.398438 200.375 125.398438 200.351562 125.398438 200.332031 C 125.308594 198.28125 126.71875 196.589844 128.511719 196.449219 C 128.707031 196.980469 129.035156 197.460938 129.492188 197.835938 C 129.699219 198.007812 129.921875 198.144531 130.15625 198.25 C 130.285156 198.3125 130.417969 198.316406 130.550781 198.269531 C 130.6875 198.21875 130.785156 198.128906 130.84375 198 C 130.902344 197.867188 130.90625 197.738281 130.855469 197.601562 C 130.804688 197.46875 130.710938 197.375 130.578125 197.316406 C 130.429688 197.25 130.285156 197.160156 130.144531 197.046875 C 129.253906 196.316406 129.058594 194.875 129.742188 193.886719 C 129.863281 193.714844 129.875 193.535156 129.777344 193.351562 C 129.675781 193.164062 129.523438 193.074219 129.3125 193.078125 C 129.132812 193.082031 128.992188 193.15625 128.894531 193.304688 C 128.453125 193.949219 128.261719 194.703125 128.300781 195.441406 C 127.675781 195.511719 127.097656 195.71875 126.582031 196.035156 C 125.859375 195.347656 125.394531 194.320312 125.410156 193.164062 L 125.417969 188.78125 L 125.425781 184.339844 C 125.429688 184.324219 125.429688 184.3125 125.429688 184.296875 C 125.417969 183.332031 125.742188 182.457031 126.273438 181.796875 C 126.972656 182.332031 127.824219 182.652344 128.753906 182.664062 C 129.894531 182.675781 130.925781 182.214844 131.710938 181.460938 Z M 131.710938 181.460938 " clip-rule="nonzero"/></clipPath><linearGradient x1="-0.00336517" gradientTransform="matrix(39.766456, 0, 0, 38.862296, 104.280687, 171.546716)" y1="0" x2="1.017619" gradientUnits="userSpaceOnUse" y2="0" id="4ba14450b1"><stop stop-opacity="1" stop-color="rgb(93.699646%, 25.498962%, 21.199036%)" offset="0"/><stop stop-opacity="1" stop-color="rgb(93.710327%, 25.59967%, 21.208191%)" offset="0.0078125"/><stop stop-opacity="1" stop-color="rgb(93.739319%, 25.872803%, 21.232605%)" offset="0.015625"/><stop stop-opacity="1" stop-color="rgb(93.777466%, 26.219177%, 21.263123%)" offset="0.0234375"/><stop stop-opacity="1" stop-color="rgb(93.814087%, 26.567078%, 21.295166%)" offset="0.03125"/><stop stop-opacity="1" stop-color="rgb(93.852234%, 26.913452%, 21.325684%)" offset="0.0390625"/><stop stop-opacity="1" stop-color="rgb(93.888855%, 27.261353%, 21.356201%)" offset="0.046875"/><stop stop-opacity="1" stop-color="rgb(93.927002%, 27.607727%, 21.388245%)" offset="0.0546875"/><stop stop-opacity="1" stop-color="rgb(93.963623%, 27.954102%, 21.418762%)" offset="0.0625"/><stop stop-opacity="1" stop-color="rgb(94.00177%, 28.302002%, 21.450806%)" offset="0.0703125"/><stop stop-opacity="1" stop-color="rgb(94.038391%, 28.648376%, 21.481323%)" offset="0.078125"/><stop stop-opacity="1" stop-color="rgb(94.076538%, 28.996277%, 21.511841%)" offset="0.0859375"/><stop stop-opacity="1" stop-color="rgb(94.114685%, 29.342651%, 21.543884%)" offset="0.09375"/><stop stop-opacity="1" stop-color="rgb(94.151306%, 29.689026%, 21.574402%)" offset="0.101562"/><stop stop-opacity="1" stop-color="rgb(94.189453%, 30.036926%, 21.606445%)" offset="0.109375"/><stop stop-opacity="1" stop-color="rgb(94.226074%, 30.383301%, 21.636963%)" offset="0.117188"/><stop stop-opacity="1" stop-color="rgb(94.264221%, 30.731201%, 21.66748%)" offset="0.125"/><stop stop-opacity="1" stop-color="rgb(94.300842%, 31.077576%, 21.699524%)" offset="0.132812"/><stop stop-opacity="1" stop-color="rgb(94.338989%, 31.42395%, 21.730042%)" offset="0.140625"/><stop stop-opacity="1" stop-color="rgb(94.377136%, 31.771851%, 21.760559%)" offset="0.148438"/><stop stop-opacity="1" stop-color="rgb(94.413757%, 32.118225%, 21.792603%)" offset="0.15625"/><stop stop-opacity="1" stop-color="rgb(94.451904%, 32.466125%, 21.82312%)" offset="0.164062"/><stop stop-opacity="1" stop-color="rgb(94.488525%, 32.8125%, 21.855164%)" offset="0.171875"/><stop stop-opacity="1" stop-color="rgb(94.526672%, 33.158875%, 21.885681%)" offset="0.179688"/><stop stop-opacity="1" stop-color="rgb(94.563293%, 33.506775%, 21.916199%)" offset="0.1875"/><stop stop-opacity="1" stop-color="rgb(94.60144%, 33.853149%, 21.948242%)" offset="0.195312"/><stop stop-opacity="1" stop-color="rgb(94.639587%, 34.199524%, 21.97876%)" offset="0.203125"/><stop stop-opacity="1" stop-color="rgb(94.676208%, 34.547424%, 22.010803%)" offset="0.210938"/><stop stop-opacity="1" stop-color="rgb(94.714355%, 34.893799%, 22.041321%)" offset="0.21875"/><stop stop-opacity="1" stop-color="rgb(94.750977%, 35.241699%, 22.071838%)" offset="0.226562"/><stop stop-opacity="1" stop-color="rgb(94.789124%, 35.588074%, 22.103882%)" offset="0.234375"/><stop stop-opacity="1" stop-color="rgb(94.825745%, 35.934448%, 22.134399%)" offset="0.242188"/><stop stop-opacity="1" stop-color="rgb(94.863892%, 36.282349%, 22.166443%)" offset="0.25"/><stop stop-opacity="1" stop-color="rgb(94.902039%, 36.628723%, 22.19696%)" offset="0.257812"/><stop stop-opacity="1" stop-color="rgb(94.93866%, 36.976624%, 22.227478%)" offset="0.265625"/><stop stop-opacity="1" stop-color="rgb(94.976807%, 37.322998%, 22.259521%)" offset="0.273438"/><stop stop-opacity="1" stop-color="rgb(95.013428%, 37.669373%, 22.290039%)" offset="0.28125"/><stop stop-opacity="1" stop-color="rgb(95.051575%, 38.017273%, 22.320557%)" offset="0.289062"/><stop stop-opacity="1" stop-color="rgb(95.088196%, 38.363647%, 22.3526%)" offset="0.296875"/><stop stop-opacity="1" stop-color="rgb(95.126343%, 38.711548%, 22.383118%)" offset="0.304688"/><stop stop-opacity="1" stop-color="rgb(95.16449%, 39.057922%, 22.415161%)" offset="0.3125"/><stop stop-opacity="1" stop-color="rgb(95.201111%, 39.404297%, 22.445679%)" offset="0.320312"/><stop stop-opacity="1" stop-color="rgb(95.239258%, 39.752197%, 22.476196%)" offset="0.328125"/><stop stop-opacity="1" stop-color="rgb(95.275879%, 40.098572%, 22.50824%)" offset="0.335938"/><stop stop-opacity="1" stop-color="rgb(95.314026%, 40.446472%, 22.538757%)" offset="0.34375"/><stop stop-opacity="1" stop-color="rgb(95.350647%, 40.792847%, 22.570801%)" offset="0.351562"/><stop stop-opacity="1" stop-color="rgb(95.388794%, 41.139221%, 22.601318%)" offset="0.359375"/><stop stop-opacity="1" stop-color="rgb(95.426941%, 41.487122%, 22.631836%)" offset="0.367188"/><stop stop-opacity="1" stop-color="rgb(95.463562%, 41.833496%, 22.663879%)" offset="0.375"/><stop stop-opacity="1" stop-color="rgb(95.501709%, 42.181396%, 22.694397%)" offset="0.382812"/><stop stop-opacity="1" stop-color="rgb(95.53833%, 42.527771%, 22.724915%)" offset="0.390625"/><stop stop-opacity="1" stop-color="rgb(95.576477%, 42.874146%, 22.756958%)" offset="0.398438"/><stop stop-opacity="1" stop-color="rgb(95.613098%, 43.222046%, 22.787476%)" offset="0.40625"/><stop stop-opacity="1" stop-color="rgb(95.651245%, 43.56842%, 22.819519%)" offset="0.414062"/><stop stop-opacity="1" stop-color="rgb(95.689392%, 43.914795%, 22.850037%)" offset="0.421875"/><stop stop-opacity="1" stop-color="rgb(95.726013%, 44.262695%, 22.880554%)" offset="0.429688"/><stop stop-opacity="1" stop-color="rgb(95.76416%, 44.60907%, 22.912598%)" offset="0.4375"/><stop stop-opacity="1" stop-color="rgb(95.800781%, 44.95697%, 22.943115%)" offset="0.445312"/><stop stop-opacity="1" stop-color="rgb(95.838928%, 45.303345%, 22.975159%)" offset="0.453125"/><stop stop-opacity="1" stop-color="rgb(95.875549%, 45.649719%, 23.005676%)" offset="0.460938"/><stop stop-opacity="1" stop-color="rgb(95.913696%, 45.99762%, 23.036194%)" offset="0.46875"/><stop stop-opacity="1" stop-color="rgb(95.951843%, 46.343994%, 23.068237%)" offset="0.476562"/><stop stop-opacity="1" stop-color="rgb(95.988464%, 46.691895%, 23.098755%)" offset="0.484375"/><stop stop-opacity="1" stop-color="rgb(96.026611%, 47.038269%, 23.130798%)" offset="0.492188"/><stop stop-opacity="1" stop-color="rgb(96.063232%, 47.384644%, 23.161316%)" offset="0.5"/><stop stop-opacity="1" stop-color="rgb(96.101379%, 47.732544%, 23.191833%)" offset="0.507812"/><stop stop-opacity="1" stop-color="rgb(96.138%, 48.078918%, 23.223877%)" offset="0.515625"/><stop stop-opacity="1" stop-color="rgb(96.176147%, 48.426819%, 23.254395%)" offset="0.523438"/><stop stop-opacity="1" stop-color="rgb(96.212769%, 48.773193%, 23.284912%)" offset="0.53125"/><stop stop-opacity="1" stop-color="rgb(96.250916%, 49.119568%, 23.316956%)" offset="0.539062"/><stop stop-opacity="1" stop-color="rgb(96.289062%, 49.467468%, 23.347473%)" offset="0.546875"/><stop stop-opacity="1" stop-color="rgb(96.325684%, 49.813843%, 23.379517%)" offset="0.554688"/><stop stop-opacity="1" stop-color="rgb(96.363831%, 50.161743%, 23.410034%)" offset="0.5625"/><stop stop-opacity="1" stop-color="rgb(96.400452%, 50.508118%, 23.440552%)" offset="0.570312"/><stop stop-opacity="1" stop-color="rgb(96.438599%, 50.854492%, 23.472595%)" offset="0.578125"/><stop stop-opacity="1" stop-color="rgb(96.47522%, 51.202393%, 23.503113%)" offset="0.585938"/><stop stop-opacity="1" stop-color="rgb(96.513367%, 51.548767%, 23.535156%)" offset="0.59375"/><stop stop-opacity="1" stop-color="rgb(96.551514%, 51.896667%, 23.565674%)" offset="0.601562"/><stop stop-opacity="1" stop-color="rgb(96.588135%, 52.243042%, 23.596191%)" offset="0.609375"/><stop stop-opacity="1" stop-color="rgb(96.626282%, 52.589417%, 23.628235%)" offset="0.617188"/><stop stop-opacity="1" stop-color="rgb(96.662903%, 52.937317%, 23.658752%)" offset="0.625"/><stop stop-opacity="1" stop-color="rgb(96.70105%, 53.283691%, 23.68927%)" offset="0.632812"/><stop stop-opacity="1" stop-color="rgb(96.737671%, 53.631592%, 23.721313%)" offset="0.640625"/><stop stop-opacity="1" stop-color="rgb(96.775818%, 53.977966%, 23.751831%)" offset="0.648438"/><stop stop-opacity="1" stop-color="rgb(96.813965%, 54.324341%, 23.783875%)" offset="0.65625"/><stop stop-opacity="1" stop-color="rgb(96.850586%, 54.672241%, 23.814392%)" offset="0.664062"/><stop stop-opacity="1" stop-color="rgb(96.888733%, 55.018616%, 23.84491%)" offset="0.671875"/><stop stop-opacity="1" stop-color="rgb(96.925354%, 55.36499%, 23.876953%)" offset="0.679688"/><stop stop-opacity="1" stop-color="rgb(96.963501%, 55.712891%, 23.907471%)" offset="0.6875"/><stop stop-opacity="1" stop-color="rgb(97.000122%, 56.059265%, 23.939514%)" offset="0.695312"/><stop stop-opacity="1" stop-color="rgb(97.038269%, 56.407166%, 23.970032%)" offset="0.703125"/><stop stop-opacity="1" stop-color="rgb(97.076416%, 56.75354%, 24.000549%)" offset="0.710938"/><stop stop-opacity="1" stop-color="rgb(97.113037%, 57.099915%, 24.032593%)" offset="0.71875"/><stop stop-opacity="1" stop-color="rgb(97.151184%, 57.447815%, 24.06311%)" offset="0.726562"/><stop stop-opacity="1" stop-color="rgb(97.187805%, 57.794189%, 24.095154%)" offset="0.734375"/><stop stop-opacity="1" stop-color="rgb(97.225952%, 58.14209%, 24.125671%)" offset="0.742188"/><stop stop-opacity="1" stop-color="rgb(97.262573%, 58.488464%, 24.156189%)" offset="0.75"/><stop stop-opacity="1" stop-color="rgb(97.30072%, 58.834839%, 24.188232%)" offset="0.757812"/><stop stop-opacity="1" stop-color="rgb(97.338867%, 59.182739%, 24.21875%)" offset="0.765625"/><stop stop-opacity="1" stop-color="rgb(97.375488%, 59.529114%, 24.249268%)" offset="0.773438"/><stop stop-opacity="1" stop-color="rgb(97.413635%, 59.877014%, 24.281311%)" offset="0.78125"/><stop stop-opacity="1" stop-color="rgb(97.450256%, 60.223389%, 24.311829%)" offset="0.789062"/><stop stop-opacity="1" stop-color="rgb(97.488403%, 60.569763%, 24.343872%)" offset="0.796875"/><stop stop-opacity="1" stop-color="rgb(97.525024%, 60.917664%, 24.37439%)" offset="0.804688"/><stop stop-opacity="1" stop-color="rgb(97.563171%, 61.264038%, 24.404907%)" offset="0.8125"/><stop stop-opacity="1" stop-color="rgb(97.601318%, 61.611938%, 24.436951%)" offset="0.820312"/><stop stop-opacity="1" stop-color="rgb(97.637939%, 61.958313%, 24.467468%)" offset="0.828125"/><stop stop-opacity="1" stop-color="rgb(97.676086%, 62.304688%, 24.499512%)" offset="0.835938"/><stop stop-opacity="1" stop-color="rgb(97.712708%, 62.652588%, 24.530029%)" offset="0.84375"/><stop stop-opacity="1" stop-color="rgb(97.750854%, 62.998962%, 24.560547%)" offset="0.851562"/><stop stop-opacity="1" stop-color="rgb(97.787476%, 63.346863%, 24.59259%)" offset="0.859375"/><stop stop-opacity="1" stop-color="rgb(97.825623%, 63.693237%, 24.623108%)" offset="0.867188"/><stop stop-opacity="1" stop-color="rgb(97.86377%, 64.039612%, 24.653625%)" offset="0.875"/><stop stop-opacity="1" stop-color="rgb(97.900391%, 64.387512%, 24.685669%)" offset="0.882812"/><stop stop-opacity="1" stop-color="rgb(97.938538%, 64.733887%, 24.716187%)" offset="0.890625"/><stop stop-opacity="1" stop-color="rgb(97.975159%, 65.080261%, 24.74823%)" offset="0.898438"/><stop stop-opacity="1" stop-color="rgb(98.013306%, 65.428162%, 24.778748%)" offset="0.90625"/><stop stop-opacity="1" stop-color="rgb(98.049927%, 65.774536%, 24.809265%)" offset="0.914062"/><stop stop-opacity="1" stop-color="rgb(98.088074%, 66.122437%, 24.841309%)" offset="0.921875"/><stop stop-opacity="1" stop-color="rgb(98.126221%, 66.468811%, 24.871826%)" offset="0.929688"/><stop stop-opacity="1" stop-color="rgb(98.162842%, 66.815186%, 24.90387%)" offset="0.9375"/><stop stop-opacity="1" stop-color="rgb(98.200989%, 67.163086%, 24.934387%)" offset="0.945312"/><stop stop-opacity="1" stop-color="rgb(98.23761%, 67.50946%, 24.964905%)" offset="0.953125"/><stop stop-opacity="1" stop-color="rgb(98.275757%, 67.857361%, 24.996948%)" offset="0.960938"/><stop stop-opacity="1" stop-color="rgb(98.312378%, 68.203735%, 25.027466%)" offset="0.96875"/><stop stop-opacity="1" stop-color="rgb(98.350525%, 68.55011%, 25.059509%)" offset="0.976562"/><stop stop-opacity="1" stop-color="rgb(98.384094%, 68.861389%, 25.086975%)" offset="0.984375"/><stop stop-opacity="1" stop-color="rgb(98.399353%, 68.998718%, 25.099182%)" offset="1"/></linearGradient></defs><g clip-path="url(#70a10540f7)"><g clip-path="url(#cc99d29a60)"><path fill="url(#4ba14450b1)" d="M 104.148438 171.546875 L 104.148438 210.410156 L 144.746094 210.410156 L 144.746094 171.546875 Z M 104.148438 171.546875 " fill-rule="nonzero"/></g></g><g fill="#000000" fill-opacity="1"><g transform="translate(143.970698, 203.624987)"><g><path d="M 17.578125 5.890625 C 16.691406 5.515625 15.628906 4.789062 14.390625 3.71875 C 13.160156 2.644531 12.175781 1.539062 11.4375 0.40625 C 11.3125 0.425781 11.097656 0.4375 10.796875 0.4375 C 7.566406 0.4375 5.257812 -0.390625 3.875 -2.046875 C 2.5 -3.710938 1.8125 -6.175781 1.8125 -9.4375 L 1.8125 -20.578125 C 1.8125 -23.828125 2.5 -26.269531 3.875 -27.90625 C 5.257812 -29.550781 7.566406 -30.375 10.796875 -30.375 C 14.054688 -30.375 16.382812 -29.546875 17.78125 -27.890625 C 19.175781 -26.242188 19.875 -23.804688 19.875 -20.578125 L 19.875 -9.4375 C 19.875 -7.238281 19.554688 -5.40625 18.921875 -3.9375 C 18.296875 -2.46875 17.289062 -1.378906 15.90625 -0.671875 C 17.164062 0.691406 18.191406 1.570312 18.984375 1.96875 Z M 10.796875 -4.25 C 11.734375 -4.25 12.347656 -4.5625 12.640625 -5.1875 C 12.941406 -5.820312 13.09375 -6.679688 13.09375 -7.765625 L 13.09375 -22.203125 C 13.09375 -23.304688 12.941406 -24.164062 12.640625 -24.78125 C 12.347656 -25.40625 11.734375 -25.71875 10.796875 -25.71875 C 9.859375 -25.71875 9.253906 -25.414062 8.984375 -24.8125 C 8.710938 -24.207031 8.578125 -23.335938 8.578125 -22.203125 L 8.578125 -7.765625 C 8.578125 -6.679688 8.710938 -5.820312 8.984375 -5.1875 C 9.253906 -4.5625 9.859375 -4.25 10.796875 -4.25 Z M 10.796875 -4.25 "/></g></g></g><g fill="#000000" fill-opacity="1"><g transform="translate(165.650396, 203.624987)"><g><path d="M 5.65625 0.375 C 4.375 0.375 3.390625 -0.0859375 2.703125 -1.015625 C 2.015625 -1.941406 1.671875 -3.144531 1.671875 -4.625 L 1.671875 -21.390625 L 7.703125 -21.390625 L 7.703125 -5.328125 C 7.703125 -4.785156 7.796875 -4.378906 7.984375 -4.109375 C 8.179688 -3.835938 8.503906 -3.703125 8.953125 -3.703125 C 9.347656 -3.703125 9.941406 -3.921875 10.734375 -4.359375 L 10.734375 -21.390625 L 16.71875 -21.390625 L 16.71875 0 L 10.734375 0 L 10.734375 -1.96875 C 9.054688 -0.40625 7.363281 0.375 5.65625 0.375 Z M 5.65625 0.375 "/></g></g></g><g fill="#000000" fill-opacity="1"><g transform="translate(184.296414, 203.624987)"><g><path d="M 1.890625 -29.1875 L 7.953125 -29.1875 L 7.953125 -25.015625 L 1.890625 -25.015625 Z M 1.921875 -21.390625 L 7.953125 -21.390625 L 7.953125 0 L 1.921875 0 Z M 1.921875 -21.390625 "/></g></g></g><g fill="#000000" fill-opacity="1"><g transform="translate(194.100372, 203.624987)"><g><path d="M 8.84375 0.375 C 6.519531 0.375 4.703125 -0.253906 3.390625 -1.515625 C 2.085938 -2.773438 1.4375 -4.523438 1.4375 -6.765625 L 1.4375 -14.609375 C 1.4375 -16.878906 2.082031 -18.632812 3.375 -19.875 C 4.675781 -21.125 6.5 -21.75 8.84375 -21.75 C 11.164062 -21.75 12.945312 -21.207031 14.1875 -20.125 C 15.4375 -19.039062 16.0625 -17.4375 16.0625 -15.3125 L 16.0625 -13.0625 L 10.25 -13.0625 L 10.25 -15.5 C 10.25 -16.3125 10.128906 -16.875 9.890625 -17.1875 C 9.660156 -17.5 9.3125 -17.65625 8.84375 -17.65625 C 8.375 -17.65625 8.035156 -17.460938 7.828125 -17.078125 C 7.617188 -16.691406 7.515625 -16.046875 7.515625 -15.140625 L 7.515625 -6.25 C 7.515625 -5.34375 7.625 -4.703125 7.84375 -4.328125 C 8.0625 -3.960938 8.40625 -3.78125 8.875 -3.78125 C 9.34375 -3.78125 9.6875 -3.9375 9.90625 -4.25 C 10.132812 -4.570312 10.25 -5.117188 10.25 -5.890625 L 10.25 -8.734375 L 16.0625 -8.734375 L 16.0625 -6.140625 C 16.0625 -4.015625 15.429688 -2.394531 14.171875 -1.28125 C 12.910156 -0.175781 11.132812 0.375 8.84375 0.375 Z M 8.84375 0.375 "/></g></g></g><g fill="#000000" fill-opacity="1"><g transform="translate(211.414526, 203.624987)"><g><path d="M 1.890625 -29.96875 L 7.875 -29.96875 L 7.875 -13.359375 L 13.140625 -21.390625 L 19.90625 -21.390625 L 14.203125 -12.609375 L 19.828125 0 L 13.25 0 L 9.46875 -10.171875 L 7.875 -8.140625 L 7.875 0 L 1.890625 0 Z M 1.890625 -29.96875 "/></g></g></g><g fill="#000000" fill-opacity="1"><g transform="translate(231.429395, 203.624987)"><g><path d="M 10.03125 0.4375 C 7.070312 0.4375 4.960938 -0.457031 3.703125 -2.25 C 2.441406 -4.050781 1.8125 -6.609375 1.8125 -9.921875 L 1.8125 -19.984375 C 1.8125 -23.359375 2.492188 -25.929688 3.859375 -27.703125 C 5.234375 -29.484375 7.546875 -30.375 10.796875 -30.375 C 13.929688 -30.375 16.175781 -29.609375 17.53125 -28.078125 C 18.894531 -26.546875 19.578125 -24.390625 19.578125 -21.609375 L 19.578125 -19.6875 L 13.09375 -19.6875 L 13.09375 -22.125 C 13.09375 -23.3125 12.957031 -24.207031 12.6875 -24.8125 C 12.414062 -25.414062 11.8125 -25.71875 10.875 -25.71875 C 9.914062 -25.71875 9.289062 -25.382812 9 -24.71875 C 8.71875 -24.050781 8.578125 -23.125 8.578125 -21.9375 L 8.578125 -8.0625 C 8.578125 -6.882812 8.753906 -5.953125 9.109375 -5.265625 C 9.472656 -4.585938 10.125 -4.25 11.0625 -4.25 C 12.789062 -4.25 13.65625 -5.546875 13.65625 -8.140625 L 13.65625 -11.65625 L 10.953125 -11.65625 L 10.953125 -15.546875 L 19.609375 -15.546875 L 19.609375 0 L 15.25 0 L 14.875 -2.484375 C 13.9375 -0.535156 12.320312 0.4375 10.03125 0.4375 Z M 10.03125 0.4375 "/></g></g></g><g fill="#000000" fill-opacity="1"><g transform="translate(252.961109, 203.624987)"><g><path d="M 1.890625 -29.1875 L 7.953125 -29.1875 L 7.953125 -25.015625 L 1.890625 -25.015625 Z M 1.921875 -21.390625 L 7.953125 -21.390625 L 7.953125 0 L 1.921875 0 Z M 1.921875 -21.390625 "/></g></g></g><g fill="#000000" fill-opacity="1"><g transform="translate(262.765067, 203.624987)"><g><path d="M 8.46875 0.375 C 6.570312 0.375 5 -0.0507812 3.75 -0.90625 C 2.507812 -1.757812 1.503906 -3.125 0.734375 -5 L 4.84375 -6.8125 C 5.238281 -5.820312 5.703125 -5.054688 6.234375 -4.515625 C 6.765625 -3.972656 7.347656 -3.703125 7.984375 -3.703125 C 8.921875 -3.703125 9.390625 -4.070312 9.390625 -4.8125 C 9.390625 -5.351562 9.203125 -5.835938 8.828125 -6.265625 C 8.460938 -6.703125 7.664062 -7.425781 6.4375 -8.4375 L 4.890625 -9.734375 C 3.597656 -10.816406 2.660156 -11.800781 2.078125 -12.6875 C 1.503906 -13.570312 1.21875 -14.632812 1.21875 -15.875 C 1.21875 -17.007812 1.519531 -18.019531 2.125 -18.90625 C 2.726562 -19.789062 3.535156 -20.484375 4.546875 -20.984375 C 5.554688 -21.492188 6.644531 -21.75 7.8125 -21.75 C 9.5625 -21.75 11.019531 -21.273438 12.1875 -20.328125 C 13.363281 -19.378906 14.195312 -18.019531 14.6875 -16.25 L 10.796875 -14.46875 C 10.554688 -15.257812 10.175781 -15.96875 9.65625 -16.59375 C 9.132812 -17.21875 8.566406 -17.53125 7.953125 -17.53125 C 7.554688 -17.53125 7.238281 -17.421875 7 -17.203125 C 6.769531 -16.984375 6.65625 -16.6875 6.65625 -16.3125 C 6.65625 -15.875 6.894531 -15.394531 7.375 -14.875 C 7.863281 -14.351562 8.625 -13.675781 9.65625 -12.84375 L 11.171875 -11.5 C 12.410156 -10.46875 13.359375 -9.5 14.015625 -8.59375 C 14.679688 -7.695312 15.015625 -6.644531 15.015625 -5.4375 C 15.015625 -4.226562 14.710938 -3.1875 14.109375 -2.3125 C 13.503906 -1.4375 12.703125 -0.769531 11.703125 -0.3125 C 10.710938 0.144531 9.632812 0.375 8.46875 0.375 Z M 8.46875 0.375 "/></g></g></g><g fill="#000000" fill-opacity="1"><g transform="translate(278.451402, 203.624987)"><g><path d="M 8.515625 0.21875 C 6.929688 0.21875 5.707031 -0.00390625 4.84375 -0.453125 C 3.976562 -0.910156 3.375 -1.570312 3.03125 -2.4375 C 2.6875 -3.300781 2.515625 -4.425781 2.515625 -5.8125 L 2.515625 -17.421875 L 0.4375 -17.421875 L 0.4375 -21.390625 L 2.515625 -21.390625 L 2.515625 -27.890625 L 8.625 -27.890625 L 8.625 -21.390625 L 11.65625 -21.390625 L 11.65625 -17.421875 L 8.625 -17.421875 L 8.625 -6.40625 C 8.625 -5.8125 8.789062 -5.367188 9.125 -5.078125 C 9.457031 -4.796875 9.921875 -4.65625 10.515625 -4.65625 C 11.003906 -4.65625 11.546875 -4.707031 12.140625 -4.8125 L 12.140625 -0.078125 C 10.953125 0.117188 9.742188 0.21875 8.515625 0.21875 Z M 8.515625 0.21875 "/></g></g></g></svg>